<svg width="75" height="75" viewBox="0 0 75 75" fill="none" xmlns="http://www.w3.org/2000/svg">
<path d="M54.2821 4.3675H70.2095V20.1675C71.4837 21.4417 72.7579 22.7159 74.032 23.9901V0.544922H50.5869C51.7337 1.81911 53.0079 3.09331 54.2821 4.3675Z" fill="#6CA2CF"/>
<path d="M26.5032 74.5765H33.2564L29.4339 70.7539H22.6807C23.9549 72.0281 25.229 73.3023 26.5032 74.5765Z" fill="#6CA2CF"/>
<path d="M3.82258 51.8947V45.014L0 41.1914V48.0721C1.27419 49.3463 2.54839 50.6205 3.82258 51.8947Z" fill="#6CA2CF"/>
<path d="M3.82258 62.3425V53.678C2.54839 52.4039 1.27419 51.1297 0 49.8555V58.52L3.82258 62.3425Z" fill="#6CA2CF"/>
<path d="M15.9276 74.5765H24.7195C23.4453 73.3023 22.1711 72.0281 20.8969 70.7539H12.2324L15.9276 74.5765Z" fill="#6CA2CF"/>
<path d="M10.321 70.755H3.82258V64.1292L0 60.3066V74.5776H14.1435L10.321 70.755Z" fill="#6CA2CF"/>
<path d="M1.27441 1.81836V73.3006H72.7566V1.81836H1.27441ZM71.4824 72.0264H2.54861V3.09255H71.4824V72.0264Z" fill="#6CA2CF"/>
<path d="M19.1124 18.5107C19.4947 18.8929 19.4947 19.53 19.1124 19.9123C18.7302 20.2945 18.0931 20.2945 17.7108 19.9123L6.75279 7.80745C6.62537 7.68003 6.62537 7.68001 6.75279 7.5526C6.88021 7.42518 6.88019 7.42518 7.00761 7.5526L19.1124 18.5107Z" fill="#6CA2CF"/>
<path d="M67.6601 68.0771C67.7875 68.2045 67.7875 68.2045 67.6601 68.3319C67.5326 68.4593 67.5326 68.4593 67.4052 68.3319L55.3004 57.3739C54.9181 56.9916 54.9181 56.3545 55.3004 55.9722C55.6826 55.59 56.3197 55.59 56.702 55.9722L67.6601 68.0771Z" fill="#6CA2CF"/>
<path d="M56.702 19.9123C56.3197 20.2945 55.6826 20.2945 55.3004 19.9123C54.9181 19.53 54.9181 18.8929 55.3004 18.5107L67.4052 7.5526C67.5326 7.42518 67.5326 7.42518 67.6601 7.5526C67.7875 7.68001 67.7875 7.68003 67.6601 7.80745L56.702 19.9123Z" fill="#6CA2CF"/>
<path d="M7.00761 68.3319C6.88019 68.4593 6.88021 68.4593 6.75279 68.3319C6.62537 68.2045 6.62537 68.2045 6.75279 68.0771L17.7108 55.9722C18.0931 55.59 18.7302 55.59 19.1124 55.9722C19.4947 56.3545 19.4947 56.9916 19.1124 57.3739L7.00761 68.3319Z" fill="#6CA2CF"/>
<path d="M37.5022 33.9358L37.5286 33.9095L37.5278 33.8722L37.2953 22.9474L37.1207 22.9492V33.8741H37.208L37.1207 33.8742L37.1207 33.8743L37.1207 33.8745L37.1207 33.8749L37.1207 33.8762L37.1208 33.8796L37.1214 33.8903C37.1221 33.8988 37.1234 33.9106 37.126 33.9239C37.1307 33.9472 37.1422 33.9899 37.1753 34.023C37.1934 34.041 37.2176 34.0558 37.2476 34.0618C37.2771 34.0677 37.3064 34.0641 37.3337 34.055C37.3857 34.0376 37.4409 33.9971 37.5022 33.9358Z" fill="#6CA2CF" stroke="#6CA2CF" stroke-width="0.174633"/>
<path d="M36.9736 42.0098L36.8863 42.0098L36.8863 42.0117L37.1188 52.9365H37.2934L37.5258 42.0117L37.5259 42.0117V42.0098C37.5259 41.9364 37.5073 41.8756 37.4749 41.827C37.4429 41.7789 37.4008 41.748 37.3614 41.7283C37.3223 41.7088 37.2843 41.6994 37.2568 41.6948C37.2428 41.6925 37.231 41.6913 37.2223 41.6907L37.2116 41.6901L37.2082 41.69L37.207 41.69L37.2065 41.69L37.2063 41.69L37.2062 41.69L37.2061 41.7773L37.2061 41.69H37.2061C37.1327 41.69 37.0719 41.7086 37.0233 41.741C36.9752 41.773 36.9443 41.8151 36.9246 41.8545C36.9051 41.8936 36.8957 41.9316 36.8911 41.9591C36.8888 41.9731 36.8876 41.9849 36.887 41.9936L36.8864 42.0043L36.8863 42.0077L36.8863 42.0089L36.8863 42.0094L36.8863 42.0096L36.8863 42.0097L36.9736 42.0098Z" fill="#6CA2CF" stroke="#6CA2CF" stroke-width="0.174633"/>
<path d="M41.2083 37.9498C41.2104 37.9563 41.2129 37.9628 41.2158 37.9693H41.2157H41.2156H41.2155H41.2154H41.2154H41.2153H41.2152H41.2152H41.2151H41.2151H41.215H41.215H41.2149H41.2149H41.2149H41.2149H41.2149H41.2148L41.2148 38.0566L41.2148 38.1439H41.2149H41.2149H41.2149H41.2149H41.2149H41.215H41.215H41.2151H41.2151H41.2152H41.2152H41.2153H41.2154H41.2154H41.2155H41.2156H41.2157H41.2158H41.2159H41.216H41.2161H41.2163H41.2164H41.2165H41.2166H41.2168H41.2169H41.2171H41.2172H41.2174H41.2176H41.2177H41.2179H41.2181H41.2183H41.2185H41.2187H41.2189H41.2191H41.2193H41.2195H41.2198H41.22H41.2202H41.2205H41.2207H41.221H41.2212H41.2215H41.2218H41.222H41.2223H41.2226H41.2229H41.2232H41.2235H41.2238H41.2241H41.2244H41.2247H41.2251H41.2254H41.2257H41.2261H41.2264H41.2268H41.2271H41.2275H41.2279H41.2283H41.2286H41.229H41.2294H41.2298H41.2302H41.2306H41.231H41.2314H41.2319H41.2323H41.2327H41.2332H41.2336H41.2341H41.2345H41.235H41.2354H41.2359H41.2364H41.2369H41.2374H41.2379H41.2383H41.2389H41.2394H41.2399H41.2404H41.2409H41.2414H41.242H41.2425H41.2431H41.2436H41.2442H41.2447H41.2453H41.2459H41.2464H41.247H41.2476H41.2482H41.2488H41.2494H41.25H41.2506H41.2513H41.2519H41.2525H41.2531H41.2538H41.2544H41.2551H41.2557H41.2564H41.2571H41.2577H41.2584H41.2591H41.2598H41.2605H41.2612H41.2619H41.2626H41.2633H41.264H41.2648H41.2655H41.2662H41.267H41.2677H41.2685H41.2692H41.27H41.2708H41.2715H41.2723H41.2731H41.2739H41.2747H41.2755H41.2763H41.2771H41.2779H41.2788H41.2796H41.2804H41.2813H41.2821H41.2829H41.2838H41.2847H41.2855H41.2864H41.2873H41.2881H41.289H41.2899H41.2908H41.2917H41.2926H41.2935H41.2945H41.2954H41.2963H41.2972H41.2982H41.2991H41.3001H41.301H41.302H41.303H41.3039H41.3049H41.3059H41.3069H41.3079H41.3089H41.3099H41.3109H41.3119H41.3129H41.3139H41.315H41.316H41.317H41.3181H41.3191H41.3202H41.3212H41.3223H41.3234H41.3245H41.3255H41.3266H41.3277H41.3288H41.3299H41.331H41.3322H41.3333H41.3344H41.3355H41.3367H41.3378H41.339H41.3401H41.3413H41.3424H41.3436H41.3448H41.3459H41.3471H41.3483H41.3495H41.3507H41.3519H41.353L41.3538 38.1447L41.391 38.1439L52.3159 37.9115L52.314 37.7369H41.3892V37.8242L41.3891 37.7369L41.389 37.7369L41.3888 37.7369L41.3883 37.7369L41.3871 37.7369L41.3836 37.737L41.373 37.7376C41.3645 37.7383 41.3527 37.7396 41.3394 37.7422C41.3161 37.7469 41.2734 37.7584 41.2403 37.7915C41.2222 37.8096 41.2074 37.8337 41.2014 37.8638C41.1955 37.8932 41.1992 37.9225 41.2083 37.9498Z" fill="#6CA2CF" stroke="#6CA2CF" stroke-width="0.174633"/>
<path d="M22.1859 37.9674V37.9666V37.9656V37.9647V37.9637V37.9628V37.9619V37.961V37.9601V37.9591V37.9582V37.9574V37.9565V37.9556V37.9547V37.9538V37.9529V37.9521V37.9512V37.9504V37.9495V37.9487V37.9478V37.947V37.9462V37.9454V37.9445V37.9437V37.9429V37.9421V37.9413V37.9405V37.9398V37.939V37.9382V37.9374V37.9367V37.9359V37.9352V37.9344V37.9337V37.9329V37.9322V37.9315V37.9308V37.93V37.9293V37.9286V37.9279V37.9272V37.9265V37.9259V37.9252V37.9245V37.9238V37.9232V37.9225V37.9219V37.9212V37.9206V37.9199V37.9193V37.9187V37.9181V37.9175V37.9168V37.9162V37.9156V37.915V37.9145V37.9139V37.9133V37.9127V37.9122V37.9116V37.911V37.9105V37.9099V37.9094V37.9089V37.9083V37.9078V37.9073V37.9068V37.9063V37.9058V37.9053V37.9048V37.9043V37.9038V37.9033V37.9029V37.9024V37.9019V37.9015V37.901V37.9006V37.9002V37.8997V37.8993V37.8989V37.8985V37.898V37.8976V37.8972V37.8968V37.8964V37.8961V37.8957V37.8953V37.8949V37.8946V37.8942V37.8939V37.8935V37.8932V37.8928V37.8925V37.8922V37.8918V37.8915V37.8912V37.8909V37.8906V37.8903V37.89V37.8897V37.8895V37.8892V37.8889V37.8887V37.8884V37.8881V37.8879V37.8877V37.8874V37.8872V37.887V37.8867V37.8865V37.8863V37.8861V37.8859V37.8857V37.8855V37.8853V37.8852V37.885V37.8848V37.8847V37.8845V37.8844V37.8842V37.8841V37.8839V37.8838V37.8837V37.8836V37.8834V37.8833V37.8832V37.8831V37.883V37.883V37.8829V37.8828V37.8827V37.8827V37.8826V37.8825V37.8825V37.8824V37.8824V37.8824V37.8823V37.8823V37.8823V37.8823V37.8823L22.0986 37.8823L22.0113 37.8823V37.8823V37.8823V37.8823V37.8823V37.8824V37.8824V37.8824V37.8825V37.8825V37.8826V37.8827V37.8827V37.8828V37.8829V37.883V37.883V37.8831V37.8832V37.8833V37.8834V37.8836V37.8837V37.8838V37.8839V37.8841V37.8842V37.8844V37.8845V37.8847V37.8848V37.885V37.8852V37.8853V37.8855V37.8857V37.8859V37.8861V37.8863V37.8865V37.8867V37.887V37.8872V37.8874V37.8877V37.8879V37.8881V37.8884V37.8887V37.8889V37.8892V37.8895V37.8897V37.89V37.8903V37.8906V37.8909V37.8912V37.8915V37.8918V37.8922V37.8925V37.8928V37.8932V37.8935V37.8939V37.8942V37.8946V37.8949V37.8953V37.8957V37.8961V37.8964V37.8968V37.8972V37.8976V37.898V37.8985V37.8989V37.8993V37.8997V37.9002V37.9006V37.901V37.9015V37.9019V37.9024V37.9029V37.9033V37.9038V37.9043V37.9048V37.9053V37.9058V37.9063V37.9068V37.9073V37.9078V37.9083V37.9089V37.9094V37.9099V37.9105V37.911V37.9116V37.9122V37.9127V37.9133V37.9139V37.9145V37.915V37.9156V37.9162V37.9168V37.9175V37.9181V37.9187V37.9193V37.9199V37.9206V37.9212V37.9219V37.9225V37.9232V37.9238V37.9245V37.9252V37.9259V37.9265V37.9272V37.9279V37.9286V37.9293V37.93V37.9308V37.9315V37.9322V37.9329V37.9337V37.9344V37.9352V37.9359V37.9367V37.9374V37.9382V37.939V37.9398V37.9405V37.9413V37.9421V37.9429V37.9437V37.9445V37.9454V37.9462V37.947V37.9478V37.9487V37.9495V37.9504V37.9512V37.9521V37.9529V37.9538V37.9547V37.9556V37.9565V37.9574V37.9582V37.9591V37.9601V37.961V37.9619V37.9628V37.9637V37.9647V37.9656V37.9666V37.9675V37.9685V37.9694V37.9704V37.9714V37.9723V37.9733V37.9743V37.9753V37.9763V37.9773V37.9783V37.9793V37.9803V37.9814V37.9824V37.9834V37.9845V37.9855V37.9866V37.9876V37.9887V37.9897V37.9908V37.9919V37.993V37.9941V37.9952V37.9963V37.9974V37.9985V37.9996V38.0007V38.0018V38.003V38.0041V38.0052V38.0064V38.0075V38.0087V38.0099V38.011V38.0122V38.0134V38.0146V38.0157V38.0169V38.0181V38.0193V38.0206V38.0218V38.023V38.0242V38.0254V38.0267V38.0279V38.0292V38.0304V38.0317V38.033V38.0342V38.0355V38.0368V38.0381V38.0393V38.0406V38.0419V38.0433V38.0446V38.0459V38.0472V38.0485V38.0499V38.0512V38.0525V38.0539V38.0552V38.0566H22.0968L22.0968 38.1439L33.0216 38.3764V38.3764H33.0234C33.0968 38.3764 33.1576 38.3578 33.2062 38.3254C33.2543 38.2934 33.2852 38.2513 33.3049 38.2119C33.3244 38.1728 33.3338 38.1348 33.3384 38.1073C33.3407 38.0933 33.3419 38.0815 33.3425 38.0728L33.3431 38.0621L33.3432 38.0587L33.3432 38.0575L33.3432 38.057L33.3432 38.0568V38.0567L33.2559 38.0566L33.3432 38.0566C33.3432 37.9832 33.3246 37.9224 33.2922 37.8738C33.2602 37.8258 33.2181 37.7948 33.1787 37.7751C33.1396 37.7556 33.1016 37.7463 33.0741 37.7417C33.0601 37.7394 33.0483 37.7382 33.0396 37.7376L33.0289 37.737L33.0255 37.7369L33.0243 37.7369L33.0238 37.7369L33.0236 37.7369L33.0235 37.7369L33.0234 37.8242L33.0234 37.7369L33.0216 37.7369L22.1859 37.9674Z" fill="#6CA2CF" stroke="#6CA2CF" stroke-width="0.174633"/>
</svg>
