<svg width="175" height="94" viewBox="0 0 175 94" fill="none" xmlns="http://www.w3.org/2000/svg">
<path d="M163.119 12.8621C148.697 12.8621 119.897 12.8621 106.071 12.8621H10.8397C5.3456 12.8621 0.996094 17.2116 0.996094 22.7057V71.6948C0.996094 77.189 5.3456 81.5385 10.8397 81.5385H106.071C121.643 81.3096 149.795 81.3096 164.217 81.3096C175.343 81.5385 174.06 74.7853 174.06 47.0858C174.06 19.3864 176.653 12.8621 163.119 12.8621ZM10.8397 77.8757C7.40589 77.8757 4.65885 75.1287 4.65885 71.6948V22.7057C4.65885 19.2719 7.40589 16.5248 10.8397 16.5248H164.217C167.651 16.5248 170.398 19.2719 170.398 22.7057V71.6948C170.398 75.1287 167.651 77.8757 164.217 77.8757H10.8397Z" fill="#6CA2CF"/>
<path d="M14.0457 7.13813C14.0457 8.74057 12.6722 10.1141 11.0697 10.1141C9.46728 10.1141 8.09375 8.74057 8.09375 7.13813C8.09375 5.53568 9.46728 4.16211 11.0697 4.16211C12.6722 4.16211 14.0457 5.53568 14.0457 7.13813Z" fill="#6CA2CF"/>
<path d="M22.5164 7.13813C22.5164 8.74057 21.1429 10.1141 19.5404 10.1141C17.938 10.1141 16.5645 8.74057 16.5645 7.13813C16.5645 5.53568 17.938 4.16211 19.5404 4.16211C21.1429 4.16211 22.5164 5.53568 22.5164 7.13813Z" fill="#6CA2CF"/>
<path d="M30.7576 7.13813C30.7576 8.74057 29.3841 10.1141 27.7816 10.1141C26.1792 10.1141 24.8057 8.74057 24.8057 7.13813C24.8057 5.53568 26.1792 4.16211 27.7816 4.16211C29.3841 4.16211 30.7576 5.53568 30.7576 7.13813Z" fill="#6CA2CF"/>
<path d="M39.2264 7.13813C39.2264 8.74057 37.8528 10.1141 36.2504 10.1141C34.6479 10.1141 33.2744 8.74057 33.2744 7.13813C33.2744 5.53568 34.6479 4.16211 36.2504 4.16211C37.8528 4.16211 39.2264 5.53568 39.2264 7.13813Z" fill="#6CA2CF"/>
<path d="M47.4676 7.13813C47.4676 8.74057 46.094 10.1141 44.4916 10.1141C42.8891 10.1141 41.5156 8.74057 41.5156 7.13813C41.5156 5.53568 42.8891 4.16211 44.4916 4.16211C46.094 4.16211 47.4676 5.53568 47.4676 7.13813Z" fill="#6CA2CF"/>
<path d="M52.7328 10.1141C54.3764 10.1141 55.7088 8.78171 55.7088 7.13813C55.7088 5.49454 54.3764 4.16211 52.7328 4.16211C51.0892 4.16211 49.7568 5.49454 49.7568 7.13813C49.7568 8.78171 51.0892 10.1141 52.7328 10.1141Z" fill="#6CA2CF"/>
</svg>
