<svg width="14" height="17" viewBox="0 0 14 17" fill="none" xmlns="http://www.w3.org/2000/svg">
<mask id="path-1-inside-1_829_7597" fill="white">
<path d="M10.9836 3.35891V13.4845H2.19673V3.35891H10.9836ZM13.6197 0.321289H0V16.0159H13.6197V0.321289Z"/>
</mask>
<path d="M10.9836 3.35891V13.4845H2.19673V3.35891H10.9836ZM13.6197 0.321289H0V16.0159H13.6197V0.321289Z" fill="#83C6FD" fill-opacity="0.8"/>
<path d="M10.9836 3.35891H15.3771V-1.03455H10.9836V3.35891ZM10.9836 13.4845V17.8779H15.3771V13.4845H10.9836ZM2.19673 13.4845H-2.19673V17.8779H2.19673V13.4845ZM2.19673 3.35891V-1.03455H-2.19673V3.35891H2.19673ZM13.6197 0.321289H18.0132V-4.07217H13.6197V0.321289ZM0 0.321289V-4.07217H-4.39346V0.321289H0ZM0 16.0159H-4.39346V20.4093H0V16.0159ZM13.6197 16.0159V20.4093H18.0132V16.0159H13.6197ZM6.59019 3.35891V13.4845H15.3771V3.35891H6.59019ZM10.9836 9.09101H2.19673V17.8779H10.9836V9.09101ZM6.59019 13.4845V3.35891H-2.19673V13.4845H6.59019ZM2.19673 7.75237H10.9836V-1.03455H2.19673V7.75237ZM13.6197 -4.07217H0V4.71475H13.6197V-4.07217ZM-4.39346 0.321289V16.0159H4.39346V0.321289H-4.39346ZM0 20.4093H13.6197V11.6224H0V20.4093ZM18.0132 16.0159V0.321289H9.22626V16.0159H18.0132Z" fill="#83C6FD" fill-opacity="0.8" mask="url(#path-1-inside-1_829_7597)"/>
</svg>
