<svg width="369" height="71" viewBox="0 0 369 71" fill="none" xmlns="http://www.w3.org/2000/svg">
<g clipPath="url(#clip0_1105_3363)">
<path d="M318.322 16.6018C318.269 20.5407 317.678 24.3991 315.478 27.8502C313.227 31.382 309.968 33.2466 305.761 33.1055C301.376 32.9604 298.243 30.6683 296.236 26.8685C294.727 24.008 294.154 20.9237 294.05 17.7024C293.941 14.2654 294.235 10.9131 295.562 7.71189C297.695 2.56544 301.867 -0.538964 307.624 0.152471C311.787 0.652401 314.486 3.15003 316.286 6.73017C317.838 9.81845 318.281 13.1446 318.322 16.5998V16.6018ZM297.774 16.5635C297.768 17.7024 297.841 18.8373 298.007 19.9622C298.349 22.2602 298.924 24.4797 300.331 26.4008C301.825 28.4388 303.888 29.5354 306.385 29.4467C309.235 29.3439 311.425 27.8663 312.62 25.3143C315.224 19.7525 315.149 14.0699 312.91 8.41139C312.118 6.40966 310.675 4.89576 308.591 4.15594C305.168 2.94039 301.804 4.23657 299.848 7.49821C298.174 10.2902 297.861 13.4067 297.772 16.5635H297.774Z" fill="#1A93FF"/>
<path d="M354.564 17.409C353.947 16.6853 353.863 14.9033 354.432 14.1252C356.665 11.0671 358.915 8.02322 361.158 4.97324C361.396 4.65071 361.619 4.31809 361.975 3.81413H347.369V0.40332H366.893C367.132 1.24191 366.942 2.11074 367.015 2.96143C364.358 6.5839 361.711 10.1943 358.976 13.9216C360.368 14.1957 361.607 14.4155 362.779 14.9053C365.989 16.2479 367.655 18.7395 368.01 22.0616C368.282 24.5995 367.882 27.0568 366.289 29.2057C364.668 31.3909 362.393 32.4815 359.795 32.8907C355.968 33.4914 352.285 32.9431 348.856 31.0885C347.759 30.4938 346.755 29.752 345.908 28.7018C346.43 27.7966 346.962 26.8774 347.47 26.0005C347.883 25.8131 348.163 25.9098 348.435 26.1779C350.682 28.3994 353.52 29.3307 356.569 29.4396C359.125 29.5323 361.692 29.1392 363.287 26.7565C365.215 23.8799 364.534 19.0338 360.059 17.8061C358.261 17.3122 356.441 17.4715 354.566 17.411L354.564 17.409Z" fill="#1A93FF"/>
<path d="M343.738 29.3287C343.73 30.639 344.14 31.8102 343.492 32.8705H322.477C322.254 31.917 322.412 30.9877 322.362 30.0282C323.932 28.3752 325.522 26.7403 327.068 25.0611C330.227 21.6322 333.646 18.437 336.575 14.8045C337.794 13.2926 338.597 11.5771 338.597 9.57942C338.597 6.30166 336.888 4.23743 333.626 3.83829C330.154 3.41497 326.981 4.07012 324.57 6.86408C324.363 7.10396 324.115 7.25515 323.708 7.28741C322.947 6.56976 322.144 5.81584 321.291 5.01152C323.111 2.58645 325.5 1.08666 328.444 0.475863C331.773 -0.213556 335.062 -0.257904 338.172 1.39307C341.747 3.28998 342.727 7.02938 342.361 10.4362C341.999 13.8107 340.132 16.401 337.918 18.7898C334.686 22.2752 331.405 25.7142 328.001 29.3266H343.736L343.738 29.3287Z" fill="#1A93FF"/>
<path d="M269 32.8461C268.264 32.0922 268.827 31.1024 268.6 30.1651C270.351 28.3085 272.106 26.464 273.843 24.6013C276.912 21.3135 280.195 18.2192 283.004 14.7015C284.672 12.6151 285.43 10.2284 284.688 7.57953C284.02 5.19076 281.909 3.85022 279.027 3.73733C275.823 3.61033 273.028 4.44691 270.844 6.89011C270.694 7.05944 270.477 7.1683 270.284 7.30941C269.241 6.77521 268.646 5.79148 267.689 5.10206C268.51 3.56397 269.827 2.57822 271.271 1.81421C275.051 -0.18752 279.047 -0.524166 283.118 0.765975C286.608 1.87267 288.564 4.88838 288.729 8.52698C288.91 12.5184 287.187 15.6308 284.607 18.4167C281.324 21.9606 277.989 25.4561 274.678 28.9757C274.617 29.0402 274.582 29.1289 274.458 29.3366H290.005C290.149 30.5541 290.118 31.6608 290.031 32.8482H269.002L269 32.8461Z" fill="#1A93FF"/>
<path d="M228.093 15.379V18.9108H211.813V29.9959H229.125V33.6224H207.385V15.1875C214.231 15.4617 221.131 15.3347 228.091 15.379H228.093Z" fill="white"/>
<path d="M258.411 29.9597V33.6366H236.695V15.1836C243.519 15.4598 250.393 15.3408 257.326 15.3771V18.9673H241.038V29.9597H258.409H258.411Z" fill="white"/>
<path d="M195.386 29.5786V18.8623H199.634V32.3584C197.598 33.1708 195.469 33.5961 193.277 33.7735C189.854 34.0497 186.488 33.7897 183.204 32.7656C177.991 31.1408 174.96 27.5607 173.808 22.3417C173.294 20.0154 173.154 17.6548 173.311 15.252H177.749C177.749 16.1671 177.725 17.0884 177.753 18.0076C177.889 22.5211 179.151 26.4943 183.48 28.7722C186.362 30.2881 189.513 30.5623 192.719 30.1712C193.572 30.0664 194.478 30.1208 195.386 29.5786Z" fill="white"/>
<path d="M337.008 42.5406H334.54C334.292 41.9156 334.296 41.1395 333.516 40.7787H327.524C326.412 41.839 326.372 42.9457 327.477 44.2581C329.35 44.2581 331.339 44.2581 333.325 44.2581C335.85 44.2581 337.014 45.3809 337.053 47.8886C337.073 49.1626 337.041 50.4346 337.061 51.7086C337.075 52.5754 336.807 53.3596 336.35 54.0611C335.875 54.7888 335.19 55.2283 334.256 55.2202C332.025 55.2041 329.793 55.2142 327.562 55.2142C325.401 55.2142 324.572 54.5066 324.166 52.3658C324.007 51.5353 324.07 50.7168 324.119 49.854H326.581C326.859 50.3822 326.804 51.0777 327.583 51.4445H333.661C334.764 50.3318 334.727 49.1243 333.506 47.9793C331.607 47.9793 329.614 47.9793 327.623 47.9793C325.403 47.9793 324.47 47.2677 324.176 45.0745C323.94 43.3207 323.93 41.5346 324.198 39.7788C324.497 37.8154 325.512 37.0212 327.495 37.0212C329.525 37.0212 331.558 37.1179 333.579 36.995C335.781 36.8599 336.781 38.3295 336.992 40.0086C337.096 40.8271 337.01 41.6697 337.01 42.5406H337.008Z" fill="white"/>
<path d="M362.501 42.5157C362.044 40.8688 361.875 40.7418 360.154 40.7418C358.6 40.7418 357.044 40.7418 355.537 40.7418C354.33 41.7477 354.302 43.1063 355.492 44.2554C357.414 44.2554 359.413 44.3542 361.398 44.2312C364.043 44.0679 364.869 45.9245 364.983 47.642C365.079 49.0773 365.054 50.5247 364.989 51.964C364.896 54.1028 363.665 55.2115 361.505 55.2115C359.543 55.2115 357.575 55.1006 355.622 55.2397C353.144 55.4171 352.323 53.9254 352.025 52.0829C351.909 51.3713 352.006 50.6255 352.006 49.8554H354.558C354.714 50.4299 354.787 51.0931 355.505 51.458H361.503C362.724 50.5368 362.716 49.1035 361.396 47.9766C359.549 47.9766 357.617 47.8839 355.7 48.0008C353.327 48.1439 352.315 46.9768 352.086 45.0274C351.88 43.2797 351.817 41.4816 352.149 39.7318C352.524 37.7442 353.475 37.0205 355.472 37.0205C357.434 37.0205 359.395 37.0205 361.357 37.0205C363.705 37.0205 364.934 38.2078 364.999 40.5482C365.018 41.1832 365.001 41.8182 365.001 42.5157H362.499H362.501Z" fill="white"/>
<path d="M256.573 47.9735H251.425V44.3349H259.195C259.073 47.1087 259.411 49.8765 259.008 52.6281C258.797 54.0634 257.751 55.3434 255.878 55.2406C253.788 55.1257 251.685 55.2144 249.587 55.2144C247.488 55.2144 246.261 54.0735 246.198 51.9185C246.158 50.4772 246.19 49.0359 246.19 47.5925C246.19 45.2783 246.182 42.9641 246.19 40.652C246.2 38.1825 247.362 37.0234 249.802 37.0234C251.663 37.0234 253.523 37.0234 255.384 37.0234C257.881 37.0234 259.118 38.2249 259.175 40.7165C259.189 41.2849 259.175 41.8534 259.175 42.4662C258.324 42.7061 257.487 42.5065 256.63 42.5972C256.455 41.8816 256.329 41.1781 255.579 40.7669H249.654C248.798 41.2144 248.729 42.059 248.709 42.8331C248.654 45.0122 248.666 47.1914 248.703 49.3705C248.715 50.1264 248.79 50.9126 249.595 51.4488H255.78C256.855 50.5175 256.52 49.2516 256.567 47.9735H256.573Z" fill="white"/>
<path d="M304.986 37.0635H317.853V40.7142H307.585V44.2298H315.332V47.9289H307.593V51.4486H317.841V55.1496H304.986V37.0635Z" fill="white"/>
<path d="M267.896 40.71V44.2296H275.664V47.967H267.915V51.4605H278.224V55.1474H265.369V37.0693H278.261V40.71H267.894H267.896Z" fill="white"/>
<path d="M145.582 37.0635H158.447V40.7424H148.168V44.2238H155.904V47.9692H148.186V51.4869H158.463V55.1456H145.584V37.0635H145.582Z" fill="#1A93FF"/>
<path d="M215.701 55.1737V37.2084C216.057 36.8919 216.447 37.023 216.8 37.023C219.504 37.0109 222.208 37.0169 224.912 37.0169C227.37 37.0169 228.641 38.2002 228.668 40.6575C228.708 44.3425 228.714 48.0275 228.666 51.7124C228.633 54.1153 227.423 55.22 225.011 55.22C222.24 55.22 219.467 55.22 216.697 55.22C216.4 55.22 216.101 55.1958 215.701 55.1777V55.1737ZM218.21 40.7866V51.4423H225.22C225.712 51.1198 225.927 50.7267 225.972 50.2288C226.224 47.5316 226.218 44.8344 225.976 42.1372C225.921 41.5244 225.625 41.0748 225.135 40.7845H218.208L218.21 40.7866Z" fill="#1A93FF"/>
<path d="M32.8672 45.1338V37.6953H52.2774V45.1338H32.8672Z" fill="#1A93FF"/>
<path d="M40.5463 19.2852V26.8708H21.1543V19.2852H40.5483H40.5463Z" fill="#1A93FF"/>
<path d="M43.0059 19.29H62.3552V26.8797H43.0059V19.29Z" fill="#1A93FF"/>
<path d="M21.1484 36.0306V28.582H40.5302V36.0306H21.1484Z" fill="#1A93FF"/>
<path d="M11.166 37.6738H30.4422V45.1425H11.166V37.6738Z" fill="#1A93FF"/>
<path d="M62.3637 28.5586V36.0112H42.9961V28.5586H62.3637Z" fill="#1A93FF"/>
<path d="M167.313 55.171H164.877V37.0768H167.376C169.039 39.397 170.752 41.7838 172.556 44.2976C174.354 41.7999 176.064 39.4253 177.77 37.0566H180.208V55.1549C179.41 55.2557 178.652 55.2456 177.809 55.1589V42.8018C177.746 42.7756 177.681 42.7494 177.618 42.7212C175.956 45.0273 174.295 47.3334 172.566 49.7343C170.831 47.3274 169.159 45.0112 167.317 42.4531V55.171H167.313Z" fill="#1A93FF"/>
<path d="M32.8574 54.23V46.8701H52.2575V54.23H32.8574Z" fill="#1A93FF"/>
<path d="M18.748 36.0511H0V28.5723H18.748V36.0511Z" fill="#1A93FF"/>
<path d="M296.248 49.4048V37.1121C297.089 36.9368 297.887 37.0537 298.747 37.0214V55.16H296.205C293.266 51.0618 290.259 46.8688 287.107 42.4703V55.154H284.646V37.0779H287.149C290.07 41.1559 293.053 45.3166 296.033 49.4794C296.104 49.4552 296.177 49.429 296.248 49.4048Z" fill="white"/>
<path d="M197.831 37.0267C200.825 41.2035 203.82 45.3783 206.993 49.8031V37.1375C207.823 36.9198 208.585 37.0367 209.424 37.0387V55.1632H206.93C203.994 51.069 201.034 46.9406 198.077 42.8141C198.008 42.8343 197.939 42.8545 197.872 42.8746V55.0685C196.976 55.3426 196.179 55.1531 195.326 55.2176V37.1093C196.133 36.9138 196.97 37.0529 197.831 37.0267Z" fill="#1A93FF"/>
<path d="M98.498 37.0635H100.995V44.1935H108.877V37.0857H111.343V55.1436C110.583 55.2807 109.817 55.2202 108.942 55.1779V48.076H101.068V55.1537H98.5001V37.0635H98.498Z" fill="#1A93FF"/>
<path d="M110.779 9.83865H106.338V1.28139C106.584 1.02941 106.87 1.12214 107.126 1.12214C111.823 1.11609 116.521 1.12617 121.218 1.11206C122.346 1.10803 123.442 1.28542 124.513 1.57973C127.853 2.49896 129.588 4.80307 129.738 8.44973C129.756 8.87911 129.74 9.3105 129.74 9.82454H125.062C125.025 9.1573 125.07 8.51021 124.944 7.89941C124.576 6.13554 123.219 4.87564 121.212 4.80307C117.775 4.6801 114.332 4.7688 110.777 4.7688V9.83462L110.779 9.83865Z" fill="white"/>
<path d="M81.248 23.4361C81.699 22.146 82.0708 21.0816 82.475 19.9205H90.5438C89.8735 18.2735 89.2681 16.7919 88.6424 15.2578H93.3391C95.9434 21.3094 98.5578 27.3872 101.237 33.6161H96.5731C95.1613 30.3222 93.7088 26.9275 92.2116 23.4361H81.248Z" fill="white"/>
<path d="M179.209 9.85148H174.346C175.426 6.90835 177.21 4.68487 179.877 3.16896C182.668 1.58248 185.74 1.05232 188.887 0.89105C192.31 0.715671 195.688 1.08457 198.997 1.98969C199.216 2.05016 199.42 2.17514 199.641 2.27594V5.99315C198.249 5.60611 196.966 5.12231 195.619 4.88242C191.987 4.23735 188.381 4.16881 184.828 5.34607C182.398 6.15039 180.499 7.60785 179.209 9.8535V9.85148Z" fill="white"/>
<path d="M211.795 9.85356H207.379V1.18945H228.823V4.62445H211.795V9.85356Z" fill="white"/>
<path d="M236.686 1.1748H258.164V4.66423H241.002V9.82077H236.686V1.1748Z" fill="white"/>
<path d="M75.8184 37.0587C78.0062 43.1747 80.1311 49.1154 82.2884 55.1489H79.7614C79.3388 54.6872 79.4404 53.9172 78.9874 53.3951H72.5945C72.369 53.9756 72.1557 54.526 71.9241 55.1206C71.1095 55.298 70.2766 55.1872 69.332 55.1912C71.4874 49.1638 73.6183 43.205 75.8184 37.0566V37.0587ZM73.8804 49.7706H77.7685C77.1164 47.9603 76.4908 46.2267 75.8082 44.3298C75.1175 46.2771 74.5 48.0188 73.8804 49.7706Z" fill="white"/>
<path d="M68.4727 33.6246C71.1318 27.4117 73.732 21.3319 76.3363 15.2461H80.7343C78.1666 21.4126 75.6172 27.5347 73.0799 33.6246H68.4727Z" fill="white"/>
<path d="M106.369 15.2617H110.684V33.6583C109.233 33.7712 107.84 33.7349 106.369 33.6785V15.2617Z" fill="white"/>
<path d="M136.793 37.0391H139.377C137.226 43.0604 135.097 49.0152 132.887 55.2038C130.679 49.0313 128.556 43.0947 126.4 37.0733H128.99C130.258 40.6111 131.53 44.153 132.879 47.9186C134.215 44.2014 135.491 40.6575 136.793 37.0391Z" fill="#1A93FF"/>
<path d="M165 14.8692C165.795 15.1998 166.656 15.1373 167.479 15.2724C168.125 22.4367 166.122 29.0567 160.659 31.8708C160.432 30.5787 160.714 29.2644 160.308 28.0307C160.281 27.8976 160.257 27.7625 160.23 27.6255C160.403 26.7647 160.736 25.9745 161.23 25.2448C161.703 24.5453 161.98 23.7591 162.211 22.9527C162.928 20.4571 163.076 17.9111 162.863 15.2945C163.446 15.1897 164.029 15.1877 164.535 14.9015L165.004 14.8672L165 14.8692Z" fill="white"/>
<path d="M141.609 26.6708C141.294 28.2432 141.43 29.8437 141.332 31.4383C136.863 29.3277 134.302 23.2519 134.96 15.2732C136.099 15.1523 137.292 15.2954 138.395 14.8499C138.523 14.9668 138.624 14.87 138.732 14.8096C139.021 14.9648 139.309 15.118 139.616 15.2833C139.275 17.5431 139.551 19.7464 140.008 21.9396C140.313 23.3951 141.139 24.6368 141.653 26.0056C141.637 26.2273 141.621 26.4491 141.607 26.6688L141.609 26.6708Z" fill="white"/>
<path d="M91.0214 9.85132H86.3878C85.8555 8.60149 85.3395 7.38997 84.7342 5.97081C83.9216 7.2791 83.6108 8.60553 82.9587 9.83922H78.6582C79.9096 6.91423 81.1365 4.04971 82.3716 1.16504H87.2674C88.4883 3.99125 89.7254 6.85376 91.0214 9.85333V9.85132Z" fill="white"/>
<path d="M239.793 60.5342H241.642C242.521 62.1146 243.409 63.7111 244.394 65.4811C245.359 63.7394 246.243 62.1489 247.133 60.5443H249.014V70.049C248.424 70.2445 247.801 70.1357 247.084 70.1155V65.5032C247.005 65.473 246.925 65.4448 246.844 65.4145C246.06 66.7974 245.278 68.1823 244.384 69.7587C243.506 68.1904 242.739 66.8176 241.971 65.4448C241.904 65.4609 241.839 65.477 241.772 65.4911V70.0893H239.793V60.5362V60.5342Z" fill="#1A93FF"/>
<path d="M8.47549 37.7158V45.2914H0.953125V37.7158H8.47549Z" fill="white"/>
<path d="M62.2038 45.3402H54.6855V37.7002H62.2038V45.3402Z" fill="white"/>
<path d="M54.6523 8.60314V1.01953H62.2133V8.60314H54.6523Z" fill="white"/>
<path d="M54.6895 10.2246H62.1854V17.7518H54.6895V10.2246Z" fill="white"/>
<path d="M54.5156 54.4198V46.8604H62.2086V54.4198H54.5156Z" fill="white"/>
<path d="M18.5996 26.8991H11V19.4404H18.5996V26.8991Z" fill="white"/>
<path d="M354.297 66.1945C353.747 66.4505 353.292 66.6622 352.751 66.9142C353.107 68.033 353.911 68.928 354.354 70.0851H352.093C351.557 69.1538 350.978 68.1459 350.401 67.146C349.723 66.9746 349.089 67.0916 348.36 67.0654V70.0145C347.626 70.2343 346.972 70.1496 346.277 70.0972V60.4675C348.961 60.8223 351.724 59.8285 354.295 61.2617V66.1925L354.297 66.1945ZM352.215 62.2173H348.284C348.335 63.2736 348.195 64.2593 348.39 65.2592H352.215V62.2173Z" fill="#1A93FF"/>
<path d="M268.263 70.1246H265.984C265.419 69.1469 264.838 68.139 264.255 67.1291C263.56 67.0243 262.896 67.0122 262.132 67.1492V70.048C261.413 70.2033 260.793 70.1589 260.125 70.1025V60.4687C262.802 60.8155 265.555 59.8438 268.131 61.2428V66.1756C267.643 66.4215 267.146 66.6735 266.567 66.9658C267.123 68.004 267.653 68.9877 268.263 70.1226V70.1246ZM266.103 62.2205H262.175V65.2503H266.103V62.2205Z" fill="#1A93FF"/>
<path d="M250.627 61.2732C252.792 60.1443 256.827 60.2048 258.547 61.3498V70.0885H256.668C256.388 69.3849 256.687 68.5968 256.465 67.7803H252.671V70.0865H250.629V61.2732H250.627ZM256.475 65.9661V62.2045H252.656V65.9661H256.475Z" fill="#1A93FF"/>
<path d="M329.128 67.7739V70.0437C328.419 70.207 327.799 70.1606 327.129 70.0961V61.4159C328.652 60.1318 333.323 60.0794 335.131 61.3675V70.0961H333.248C333.02 69.3704 333.254 68.5923 333.087 67.7759H329.13L329.128 67.7739ZM329.173 65.9616H333.089V62.2404H329.173V65.9616Z" fill="#1A93FF"/>
<path d="M120.219 55.1775H117.77V37.0732H120.219V55.1775Z" fill="#1A93FF"/>
<path d="M280.609 70.0991H278.604V60.5803H280.509C280.722 61.6023 280.426 62.6486 280.698 63.6847H284.521V60.6307C285.23 60.4372 285.852 60.5077 286.53 60.5581V70.0648C285.919 70.2221 285.299 70.1414 284.574 70.1253V65.503H280.606V70.1031L280.609 70.0991Z" fill="#1A93FF"/>
<path d="M344.668 61.3396V66.861C342.887 68.2641 340.788 67.4315 338.799 67.7843V70.0098C338.113 70.2739 337.487 70.0904 336.807 70.1509V60.6583C338.814 60.1281 343.409 60.5091 344.668 61.3396ZM342.612 65.97V62.2044H338.838V65.97H342.612Z" fill="#1A93FF"/>
<path d="M345.686 55.1719H343.289V37.0615H345.686V55.1719Z" fill="white"/>
<path d="M188.925 55.1733H186.668C186.446 54.4456 186.379 38.3853 186.593 37.0932C187.342 36.9521 188.102 37.0226 188.925 37.0387V55.1733Z" fill="#1A93FF"/>
<path d="M301.957 62.2068V60.582H310.062C310.327 61.8117 310.113 62.9728 309.226 64.0513C310.536 65.6116 310.056 67.4258 310.136 69.2078C307.574 70.9475 304.708 69.7823 301.965 70.2198V68.4156H307.814C308.257 66.7747 307.814 65.4019 306.918 64.2327C307.021 63.4304 307.645 62.9849 307.779 62.2088H301.955L301.957 62.2068Z" fill="white"/>
<path d="M217.156 68.3954C217.617 66.7081 217.099 65.3696 216.193 64.142C216.533 63.4989 216.839 62.9163 217.225 62.1825H211.326V60.584H219.369C219.541 61.8237 219.49 62.9929 218.556 64.0533C219.893 65.5833 219.293 67.4137 219.442 69.1715C218.948 69.6593 218.196 69.6795 217.784 70.129H211.363V68.3974H217.154L217.156 68.3954Z" fill="white"/>
<path d="M269.768 69.2683V61.2694C272.11 59.7999 274.708 60.8824 277.168 60.4248C277.385 61.0296 277.296 61.5174 277.282 62.104H271.854V68.3652H277.217C277.363 68.9821 277.32 69.5001 277.257 70.1916C274.767 69.8328 272.161 70.8709 269.768 69.2663V69.2683Z" fill="#1A93FF"/>
<path d="M115.719 16.3708C119.463 14.7662 123.343 15.3185 127.422 15.2117C124.304 18.2879 120.523 19.1849 116.578 19.8985C116.275 18.6527 115.995 17.5057 115.719 16.3688V16.3708Z" fill="white"/>
<path d="M366.948 70.1209H359.373V60.5739C359.98 60.4671 360.598 60.4892 361.295 60.5658V68.353H366.902C367.058 68.9921 367.021 69.5061 366.948 70.1209Z" fill="#1A93FF"/>
<path d="M160.272 7.1821C160.699 5.79721 160.488 4.35185 160.622 2.83594C163.565 4.40628 165.361 6.7749 166.466 9.80875C165.355 10.1152 164.215 9.73819 163.165 10.1273C163.001 10.1575 162.832 10.1897 162.663 10.222C162.259 10.099 161.855 9.97606 161.473 9.86116C161.044 9.03063 160.335 8.40169 160.248 7.45626C160.256 7.36353 160.264 7.2708 160.272 7.18008V7.1821Z" fill="white"/>
<path d="M140.242 10.1261C138.871 9.72701 137.426 10.1161 135.996 9.80361C137.01 6.98546 138.68 4.76601 141.461 3.05859C141.461 4.56443 141.461 5.91706 141.461 7.27171C141.461 7.67488 141.455 8.08006 141.725 8.42276C141.78 8.50541 141.834 8.58806 141.889 8.67272C141.452 9.19886 141.416 10.0556 140.569 10.2431C140.477 10.1544 140.398 10.0334 140.242 10.1261Z" fill="white"/>
<path d="M222.924 60.4668V70.1066H220.955V61.3276C221.528 60.9808 222.141 60.6785 222.924 60.4668Z" fill="white"/>
<path d="M355.928 60.542H357.726C357.921 61.3201 357.955 68.9561 357.766 70.0971H355.928V60.542Z" fill="#1A93FF"/>
<path d="M315.888 62.4166C315.646 62.5678 315.368 62.7392 315.041 62.9408C315.343 63.477 315.632 63.987 315.991 64.624C315.486 64.6522 315.108 64.6724 314.687 64.6946C314.34 64.114 314.001 63.5475 313.645 62.9508H312.52C312.231 63.4508 312.552 64.0495 312.329 64.5917C312.014 64.745 311.689 64.6845 311.297 64.6179V59.0925C312.79 59.1994 314.342 58.8284 315.884 59.407V62.4146L315.888 62.4166ZM314.791 60.0823C313.94 60.0198 313.188 59.9251 312.471 60.1367V61.8945C313.286 61.8683 314.039 61.9973 314.791 61.8099V60.0823Z" fill="white"/>
<path d="M141.609 26.6711C141.626 26.4493 141.642 26.2276 141.656 26.0059C141.88 26.2074 142.109 26.405 142.327 26.6126C146.548 30.6524 151.998 31.5958 157.365 29.2453C158.381 28.7998 159.173 27.9854 160.227 27.6226C160.254 27.7576 160.28 27.8947 160.305 28.0278C154.716 32.6521 146.603 32.0655 141.607 26.6711H141.609Z" fill="#1A93FF"/>
<path d="M225.309 60.0338C225.112 61.2292 226.199 61.0619 226.708 61.4066C227.31 61.8138 228.033 62.0436 228.724 62.3601V64.1804C227.334 65.1743 225.693 64.4344 224.24 64.7126C223.883 64.4123 224.088 64.1018 223.986 63.7128H227.436C227.455 63.2437 226.994 62.7868 226.052 62.342C225.386 62.0275 224.72 61.7151 224.043 61.3986V59.5259C225.532 58.6772 227.141 59.3021 228.774 59.04C228.75 59.419 228.734 59.6891 228.713 60.0298H225.311L225.309 60.0338Z" fill="white"/>
<path d="M141.887 8.67274C141.832 8.59009 141.778 8.50543 141.723 8.42278C142.897 6.6952 144.676 5.75178 146.521 4.98173C150.888 3.16142 155.083 3.71578 159.093 6.10052C159.561 6.37871 159.957 6.73551 160.272 7.18102C160.263 7.27576 160.255 7.36849 160.247 7.46122C159.335 7.18706 158.681 6.48152 157.842 6.07029C153.759 4.0625 149.688 4.07258 145.58 5.98965C144.166 6.64883 143.086 7.73537 141.887 8.67476V8.67274Z" fill="#1A93FF"/>
<path d="M321.518 59.931C321.518 61.199 321.518 62.4992 321.518 63.7974C320.147 64.9444 318.532 64.6985 316.896 64.638V59.1428C318.479 59.0884 320.092 58.8162 321.518 59.931ZM320.338 60.5982C319.621 60.0902 318.895 59.8423 318.04 60.1286V63.6119C318.92 63.8397 319.655 63.6543 320.338 63.1745V60.5982Z" fill="white"/>
<path d="M229.598 60.0452V59.126H234.166C234.311 59.4021 234.25 59.6561 234.199 59.9242C233.669 60.1782 233.059 59.8597 232.454 60.1722V64.6091C232.015 64.7058 231.658 64.7179 231.225 64.6091V60.0472H229.596L229.598 60.0452Z" fill="white"/>
<path d="M296.56 64.4482V66.0851H292.418V64.4482H296.56Z" fill="white"/>
<path d="M162.664 10.2246C162.831 10.1924 162.999 10.1601 163.164 10.1299C164.035 11.6135 164.899 13.0972 165 14.8712C164.842 14.8812 164.685 14.8933 164.529 14.9054C164.198 13.2323 163.363 11.7547 162.664 10.2246Z" fill="#1A93FF"/>
<path d="M140.241 10.1251C140.398 10.0324 140.477 10.1534 140.568 10.242C139.957 11.764 139.343 13.288 138.732 14.81C138.624 14.8704 138.523 14.9672 138.395 14.8503C138.474 13.0683 139.364 11.5987 140.241 10.1251Z" fill="#1A93FF"/>
<path d="M144.925 17.4995C144.651 14.3608 147.755 10.7444 151.728 10.7726C155.206 10.7968 158.584 13.7359 158.515 17.6829C158.456 21.0192 155.661 24.3372 151.543 24.2889C147.773 24.2445 144.669 20.9083 144.925 17.4975V17.4995Z" fill="#1A93FF"/>
</g>
<defs>
<clipPath id="clip0_1105_3363">
<rect width="368.09" height="70.2179" fill="white"/>
</clipPath>
</defs>
</svg>
