<svg width="34" height="34" viewBox="0 0 34 34" fill="none" xmlns="http://www.w3.org/2000/svg">
<g clipPath="url(#clip0_214_283)">
<path d="M33.2572 17.1146C33.2572 7.93215 25.8123 0.488281 16.6286 0.488281C7.44487 0.488281 0 7.93215 0 17.1146C0 25.4132 6.0808 32.2917 14.0304 33.539V21.9207H9.80827V17.1146H14.0304V13.4517C14.0304 9.28467 16.513 6.98296 20.3112 6.98296C22.13 6.98296 24.0335 7.30769 24.0335 7.30769V11.3993H21.9367C19.8712 11.3993 19.2268 12.6811 19.2268 13.9972V17.1146H23.8386L23.1014 21.9207H19.2268V33.539C27.1764 32.2917 33.2572 25.4132 33.2572 17.1146Z" fill="#CCE7FF"/>
</g>
<defs>
<clipPath id="clip0_214_283">
<rect width="33.2572" height="33.2527" fill="white" transform="translate(0 0.488281)"/>
</clipPath>
</defs>
</svg>
