<svg width="146" height="131" viewBox="0 0 146 131" fill="none" xmlns="http://www.w3.org/2000/svg">
<g filter="url(#filter0_di_214_284)">
<path d="M72.7694 54.8749C78.8165 54.8749 79.5326 54.9014 81.9108 55.0075C84.121 55.1047 85.3145 55.476 86.1102 55.7854C87.1623 56.192 87.9226 56.687 88.7094 57.4738C89.5051 58.2693 89.9914 59.0207 90.398 60.0726C90.7075 60.8682 91.0788 62.0704 91.176 64.2715C91.2821 66.6582 91.3087 67.3742 91.3087 73.4117C91.3087 79.4581 91.2821 80.1741 91.176 82.552C91.0788 84.7619 90.7075 85.9553 90.398 86.7508C89.9914 87.8027 89.4963 88.563 88.7094 89.3497C87.9138 90.1453 87.1623 90.6315 86.1102 91.0381C85.3145 91.3475 84.1122 91.7187 81.9108 91.816C79.5238 91.922 78.8077 91.9486 72.7694 91.9486C66.7222 91.9486 66.0061 91.922 63.6279 91.816C61.4177 91.7187 60.2242 91.3475 59.4285 91.0381C58.3764 90.6315 57.6161 90.1364 56.8293 89.3497C56.0336 88.5541 55.5473 87.8027 55.1407 86.7508C54.8312 85.9553 54.4599 84.7531 54.3627 82.552C54.2566 80.1653 54.23 79.4492 54.23 73.4117C54.23 67.3654 54.2566 66.6494 54.3627 64.2715C54.4599 62.0616 54.8312 60.8682 55.1407 60.0726C55.5473 59.0207 56.0424 58.2605 56.8293 57.4738C57.6249 56.6782 58.3764 56.192 59.4285 55.7854C60.2242 55.476 61.4265 55.1047 63.6279 55.0075C66.0061 54.9014 66.7222 54.8749 72.7694 54.8749ZM72.7694 50.7998C66.6249 50.7998 65.8558 50.8263 63.4422 50.9324C61.0375 51.0385 59.3843 51.4274 57.952 51.9843C56.4579 52.5677 55.1937 53.3368 53.9383 54.6009C52.674 55.8561 51.9049 57.1202 51.3214 58.6053C50.7644 60.0461 50.3754 61.6903 50.2693 64.0947C50.1632 66.5168 50.1367 67.2858 50.1367 73.4294C50.1367 79.573 50.1632 80.3421 50.2693 82.7553C50.3754 85.1597 50.7644 86.8127 51.3214 88.2447C51.9049 89.7386 52.674 91.0027 53.9383 92.258C55.1937 93.5132 56.4579 94.2911 57.9432 94.8657C59.3843 95.4226 61.0287 95.8115 63.4334 95.9176C65.8469 96.0237 66.6161 96.0502 72.7605 96.0502C78.9049 96.0502 79.6741 96.0237 82.0876 95.9176C84.4923 95.8115 86.1456 95.4226 87.5778 94.8657C89.0631 94.2911 90.3273 93.5132 91.5827 92.258C92.8381 91.0027 93.6161 89.7386 94.1908 88.2536C94.7478 86.8127 95.1368 85.1685 95.2428 82.7641C95.3489 80.3509 95.3755 79.5818 95.3755 73.4383C95.3755 67.2947 95.3489 66.5256 95.2428 64.1124C95.1368 61.708 94.7478 60.055 94.1908 58.6229C93.6338 57.1202 92.8647 55.8561 91.6004 54.6009C90.345 53.3456 89.0808 52.5677 87.5955 51.9932C86.1544 51.4363 84.51 51.0473 82.1053 50.9412C79.6829 50.8263 78.9138 50.7998 72.7694 50.7998Z" fill="#54AEFF"/>
<path d="M72.7703 61.8057C66.3518 61.8057 61.1445 67.0122 61.1445 73.4299C61.1445 79.8475 66.3518 85.054 72.7703 85.054C79.1887 85.054 84.396 79.8475 84.396 73.4299C84.396 67.0122 79.1887 61.8057 72.7703 61.8057ZM72.7703 80.9701C68.6062 80.9701 65.229 77.5933 65.229 73.4299C65.229 69.2664 68.6062 65.8896 72.7703 65.8896C76.9343 65.8896 80.3115 69.2664 80.3115 73.4299C80.3115 77.5933 76.9343 80.9701 72.7703 80.9701Z" fill="#54AEFF"/>
<path d="M87.5709 61.3456C87.5709 62.8484 86.3508 64.0594 84.8567 64.0594C83.3538 64.0594 82.1426 62.8395 82.1426 61.3456C82.1426 59.8429 83.3626 58.6318 84.8567 58.6318C86.3508 58.6318 87.5709 59.8517 87.5709 61.3456Z" fill="#54AEFF"/>
</g>
<defs>
<filter id="filter0_di_214_284" x="0.136719" y="0.799805" width="145.238" height="145.25" filterUnits="userSpaceOnUse" color-interpolation-filters="sRGB">
<feFlood flood-opacity="0" result="BackgroundImageFix"/>
<feColorMatrix in="SourceAlpha" type="matrix" values="0 0 0 0 0 0 0 0 0 0 0 0 0 0 0 0 0 0 127 0" result="hardAlpha"/>
<feOffset/>
<feGaussianBlur stdDeviation="25"/>
<feComposite in2="hardAlpha" operator="out"/>
<feColorMatrix type="matrix" values="0 0 0 0 0.329412 0 0 0 0 0.682353 0 0 0 0 1 0 0 0 1 0"/>
<feBlend mode="normal" in2="BackgroundImageFix" result="effect1_dropShadow_214_284"/>
<feBlend mode="normal" in="SourceGraphic" in2="effect1_dropShadow_214_284" result="shape"/>
<feColorMatrix in="SourceAlpha" type="matrix" values="0 0 0 0 0 0 0 0 0 0 0 0 0 0 0 0 0 0 127 0" result="hardAlpha"/>
<feOffset/>
<feGaussianBlur stdDeviation="10"/>
<feComposite in2="hardAlpha" operator="arithmetic" k2="-1" k3="1"/>
<feColorMatrix type="matrix" values="0 0 0 0 0.282353 0 0 0 0 0.584314 0 0 0 0 0.854902 0 0 0 1 0"/>
<feBlend mode="normal" in2="shape" result="effect2_innerShadow_214_284"/>
</filter>
</defs>
</svg>
