<svg width="248" height="247" viewBox="0 0 248 247" fill="none" xmlns="http://www.w3.org/2000/svg">
<path d="M123.931 225.707L111.764 247H136.099L123.931 225.707Z" fill="#BEE1FF"/>
<path d="M123.931 21.2931L136.099 0H111.764L123.931 21.2931Z" fill="#BEE1FF"/>
<path d="M21.7248 123.5L0.431641 111.333V135.668L21.7248 123.5Z" fill="#BEE1FF"/>
<path d="M226.441 123.5L247.43 135.668V111.333L226.441 123.5Z" fill="#BEE1FF"/>
<path d="M10.166 100.078C10.4702 98.2528 11.0786 96.1235 11.3828 94.2984L22.0293 97.0361C21.7251 98.8612 21.1168 100.382 20.8126 102.207L10.166 100.078ZM13.8163 85.7812C14.4246 83.956 15.033 82.1309 15.9456 80.3058L26.2879 84.5644C25.6796 86.0853 25.0712 87.9105 24.4628 89.4314L13.8163 85.7812ZM19.5958 72.3969C20.5084 70.5718 21.4209 69.0509 22.3335 67.2257L32.0675 72.7011C31.1549 74.222 30.5466 75.743 29.634 77.2639L19.5958 72.3969ZM26.5921 59.6211C27.8089 58.1001 28.7214 56.275 29.9382 54.7541L38.7596 61.142C37.8471 62.6629 36.6303 63.8797 35.7177 65.4006L26.5921 59.6211ZM35.4136 48.0619C36.6303 46.541 37.8471 45.0201 39.368 43.8033L47.5811 51.408C46.3643 52.6247 45.1476 54.1457 43.9308 55.3624L35.4136 48.0619ZM45.7559 37.7196C47.2769 36.5028 48.7978 34.9819 50.3187 33.7651L57.315 42.2824C56.0983 43.4991 54.5774 44.4117 53.3606 45.6284L45.7559 37.7196ZM57.0108 28.594C58.5318 27.3772 60.0527 26.1605 61.8778 25.2479L67.9616 34.6777C66.4406 35.5903 64.9197 36.5028 63.703 37.7196L57.0108 28.594ZM69.4825 20.6851C71.3076 19.7725 72.8286 18.86 74.6537 17.9474L79.2165 27.9856C77.6956 28.594 76.1746 29.5065 74.3495 30.4191L69.4825 20.6851ZM82.8668 14.9055C84.6919 14.2972 86.517 13.6888 88.3421 13.0804L91.6882 23.727C89.8631 24.3353 88.3421 24.9437 86.8212 25.5521L82.8668 14.9055ZM96.5552 10.3427C98.3803 10.0385 100.205 9.43016 102.335 9.12598L104.464 20.0767C102.639 20.3809 101.118 20.6851 99.2929 21.2935L96.5552 10.3427ZM227.051 102.207C226.747 100.382 226.443 98.8612 225.835 97.0361L236.481 94.2984C237.09 96.1235 237.394 97.9486 237.698 100.078L227.051 102.207ZM223.705 89.4314C223.097 87.6063 222.489 86.0853 221.88 84.5644L232.223 80.3058C232.831 82.1309 233.744 83.956 234.352 85.7812L223.705 89.4314ZM218.534 77.2639C217.622 75.743 217.013 74.222 216.101 72.7011L225.835 67.2257C226.747 69.0509 227.66 70.5718 228.572 72.3969L218.534 77.2639ZM212.146 65.7048C211.234 64.1839 210.321 62.6629 209.104 61.4462L217.926 55.0582C219.143 56.5792 220.055 58.1001 221.272 59.9252L212.146 65.7048ZM204.237 55.3624C203.021 54.1457 201.804 52.6247 200.587 51.408L208.8 43.8033C210.017 45.3243 211.538 46.541 212.755 48.0619L204.237 55.3624ZM194.808 45.9326C193.591 44.7159 192.07 43.4991 190.853 42.5866L197.85 34.0693C199.37 35.2861 200.891 36.5028 202.412 38.0238L194.808 45.9326ZM184.465 37.4154C182.944 36.5028 181.423 35.2861 180.207 34.3735L186.29 24.9437C187.811 26.1605 189.332 27.3772 191.157 28.594L184.465 37.4154ZM173.515 30.7233C171.994 29.8107 170.473 29.2023 168.648 28.2898L173.21 18.2516C175.035 19.1642 176.861 20.0767 178.382 20.9893L173.515 30.7233ZM161.347 25.2479C159.826 24.6395 158.001 24.0311 156.48 23.4228L159.826 12.7762C161.651 13.3846 163.476 13.993 165.301 14.6013L161.347 25.2479ZM148.571 21.2935C146.746 20.9893 145.225 20.3809 143.4 20.0767L145.529 9.12598C147.354 9.43016 149.484 10.0385 151.309 10.3427L148.571 21.2935ZM238.002 146.923C237.698 148.748 237.09 150.877 236.785 152.702L226.139 149.965C226.443 148.14 227.051 146.619 227.356 144.793L238.002 146.923ZM234.048 161.22C233.439 163.045 232.831 164.87 231.918 166.695L221.576 162.436C222.184 160.915 222.793 159.09 223.401 157.569L234.048 161.22ZM228.572 174.604C227.66 176.429 226.747 177.95 225.835 179.775L216.101 174.3C217.013 172.779 217.622 171.258 218.534 169.737L228.572 174.604ZM221.272 187.38C220.055 188.901 219.143 190.726 217.926 192.247L209.104 185.555C210.017 184.034 211.234 182.817 212.146 181.296L221.272 187.38ZM212.451 198.939C211.234 200.46 210.017 201.981 208.496 203.197L200.283 195.593C201.5 194.376 202.717 192.855 203.933 191.638L212.451 198.939ZM202.412 209.281C200.891 210.498 199.37 212.019 197.85 213.236L190.853 204.718C192.07 203.502 193.591 202.589 194.808 201.372L202.412 209.281ZM191.157 218.711C189.636 219.928 187.811 220.84 186.29 222.057L180.207 212.627C181.728 211.715 183.249 210.802 184.465 209.585L191.157 218.711ZM178.686 226.316C176.861 227.228 175.34 228.141 173.515 229.053L168.952 219.015C170.473 218.407 171.994 217.494 173.819 216.582L178.686 226.316ZM165.301 232.399C163.476 233.008 161.651 233.616 159.826 234.225L156.48 223.578C158.305 222.97 159.826 222.361 161.347 221.753L165.301 232.399ZM151.309 236.658C149.484 236.962 147.659 237.571 145.529 237.875L143.4 226.924C145.225 226.62 146.746 226.316 148.571 225.707L151.309 236.658ZM20.8126 144.793C21.1168 146.619 21.4209 148.14 22.0293 149.965L11.3828 152.702C10.7744 150.877 10.4702 149.052 10.166 146.923L20.8126 144.793ZM24.4628 157.569C25.0712 159.394 25.6796 160.915 26.2879 162.436L15.9456 166.695C15.3372 164.87 14.4246 163.045 13.8163 161.22L24.4628 157.569ZM29.3298 169.737C30.2424 171.258 30.8508 172.779 31.7633 174.3L22.0293 179.775C21.1168 177.95 20.2042 176.429 19.2916 174.604L29.3298 169.737ZM36.0219 181.296C36.9345 182.817 37.8471 184.338 39.0638 185.555L30.2424 191.942C29.0256 190.422 28.1131 188.901 26.8963 187.075L36.0219 181.296ZM43.9308 191.638C45.1476 192.855 46.3643 194.376 47.5811 195.593L39.368 203.197C38.1512 201.676 36.6303 200.46 35.4136 198.939L43.9308 191.638ZM53.0564 201.372C54.2732 202.589 55.7941 203.806 57.0108 204.718L50.0145 213.236C48.4936 212.019 46.9727 210.802 45.4517 209.281L53.0564 201.372ZM63.3988 209.585C64.9197 210.498 66.4407 211.715 67.6574 212.627L61.5737 222.057C60.0527 221.144 58.2276 219.928 56.7067 218.711L63.3988 209.585ZM74.6537 216.582C76.1746 217.494 77.6956 218.103 79.5207 219.015L74.9579 229.053C73.1328 228.141 71.3077 227.228 69.7867 226.316L74.6537 216.582ZM86.517 221.753C88.0379 222.361 89.8631 222.97 91.384 223.578L88.3421 234.225C86.517 233.616 84.6919 233.008 82.8668 232.399L86.517 221.753ZM99.2929 225.707C101.118 226.011 102.639 226.62 104.464 226.924L102.335 237.875C100.51 237.571 98.3803 236.962 96.5552 236.658L99.2929 225.707Z" fill="#83C4FD"/>
</svg>
