<svg width="432" height="433" viewBox="0 0 432 433" fill="none" xmlns="http://www.w3.org/2000/svg">
<path d="M216.323 432.23C97.4334 432.23 0.6875 335.485 0.6875 216.595C0.6875 97.7058 97.4334 0.959961 216.323 0.959961C335.212 0.959961 431.958 97.4422 431.958 216.332C431.958 335.485 335.212 432.23 216.323 432.23ZM216.323 3.33248C98.7515 3.33248 3.32363 99.0239 3.32363 216.332C3.32363 333.903 99.0151 429.331 216.323 429.331C333.894 429.331 429.322 333.639 429.322 216.332C429.322 99.0239 333.63 3.33248 216.323 3.33248ZM216.323 413.514C107.714 413.514 19.404 325.204 19.404 216.595C19.404 107.987 107.714 19.6765 216.323 19.6765C324.931 19.6765 413.242 107.987 413.242 216.595C413.242 324.94 324.931 413.514 216.323 413.514ZM216.323 22.049C109.032 22.049 22.0401 109.305 22.0401 216.332C22.0401 323.622 109.296 410.614 216.323 410.614C323.613 410.614 410.605 323.358 410.605 216.332C410.605 109.305 323.35 22.049 216.323 22.049Z" fill="#83C4FD"/>
<path d="M216.322 372.918C130.121 372.918 59.7363 302.797 59.7363 216.332C59.7363 130.131 129.857 59.7461 216.322 59.7461C302.524 59.7461 372.908 129.867 372.908 216.332C372.645 302.797 302.524 372.918 216.322 372.918ZM216.322 62.6458C131.439 62.6458 62.3725 131.449 62.3725 216.332C62.3725 301.215 131.439 370.282 216.322 370.282C301.206 370.282 370.272 301.215 370.272 216.332C370.009 131.449 301.206 62.6458 216.322 62.6458Z" fill="#4DACFF"/>
<path d="M216.324 410.614C215.533 410.614 214.478 410.614 213.687 410.614V402.706C214.478 402.706 215.533 402.706 216.324 402.706V410.614ZM223.441 410.614L223.178 402.706C223.968 402.706 225.023 402.706 225.814 402.706L226.341 410.614C225.286 410.614 224.496 410.614 223.441 410.614ZM202.879 410.351C202.089 410.351 201.034 410.351 200.243 410.087L200.77 402.179C201.561 402.179 202.616 402.442 203.407 402.442L202.879 410.351ZM236.885 409.56L236.095 401.651C236.885 401.651 237.676 401.388 238.731 401.388L239.785 409.296C238.731 409.56 237.94 409.56 236.885 409.56ZM189.435 408.769C188.644 408.769 187.59 408.505 186.799 408.505L188.117 400.597C188.908 400.597 189.699 400.86 190.753 400.86L189.435 408.769ZM250.33 407.714L249.012 399.806C249.802 399.542 250.593 399.542 251.648 399.279L253.229 406.924C251.911 407.451 251.121 407.714 250.33 407.714ZM176.254 406.66C175.464 406.396 174.409 406.396 173.618 406.133L175.464 398.488C176.254 398.752 177.045 398.752 178.1 399.015L176.254 406.66ZM263.51 404.815L261.665 397.17C262.456 396.906 263.247 396.643 264.038 396.643L266.146 404.287C265.092 404.551 264.301 404.815 263.51 404.815ZM163.074 403.233C162.283 402.969 161.229 402.706 160.438 402.442L162.81 394.797C163.601 395.061 164.392 395.325 165.183 395.588L163.074 403.233ZM276.427 401.124L274.055 393.479C274.846 393.216 275.637 392.952 276.427 392.688L279.063 400.07C278.009 400.597 277.218 400.86 276.427 401.124ZM150.42 399.279C149.63 399.015 148.839 398.752 147.784 398.224L150.684 390.843C151.475 391.107 152.266 391.37 153.057 391.634L150.42 399.279ZM288.817 396.643L285.917 389.262C286.708 388.998 287.499 388.734 288.29 388.207L291.453 395.588C290.662 395.852 289.872 396.379 288.817 396.643ZM137.767 394.27C136.976 394.007 136.185 393.479 135.395 393.216L138.821 386.098C139.612 386.362 140.403 386.889 141.194 387.153L137.767 394.27ZM301.207 391.107L297.78 383.989C298.571 383.726 299.362 383.198 300.152 382.935L303.843 390.052C302.789 390.316 301.998 390.843 301.207 391.107ZM125.641 388.207C124.85 387.68 124.059 387.416 123.268 386.889L126.959 380.035C127.75 380.562 128.541 380.826 129.331 381.353L125.641 388.207ZM313.069 384.78L309.115 377.926C309.906 377.399 310.697 377.135 311.224 376.608L315.178 383.462C314.651 383.989 313.86 384.516 313.069 384.78ZM114.042 381.617C113.251 381.089 112.46 380.562 111.669 380.299L115.887 373.708C116.678 374.236 117.469 374.763 117.996 375.026L114.042 381.617ZM324.405 377.663L319.923 371.072C320.714 370.545 321.242 370.018 322.032 369.491L326.514 376.081C325.987 376.608 325.196 377.135 324.405 377.663ZM102.707 373.972C101.916 373.445 101.388 372.917 100.598 372.39L105.343 366.064C106.133 366.591 106.661 367.118 107.452 367.645L102.707 373.972ZM335.213 369.754L330.468 363.427C331.259 362.9 331.786 362.373 332.577 361.846L337.585 367.909C336.795 368.7 336.004 369.227 335.213 369.754ZM92.162 365.8C91.3712 365.273 90.8439 364.746 90.0531 363.955L95.3254 357.892C95.8526 358.419 96.6434 358.946 97.1707 359.473L92.162 365.8ZM345.758 361.319L340.485 355.519C341.012 354.992 341.803 354.465 342.331 353.674L347.603 359.473C347.076 360 346.285 360.528 345.758 361.319ZM82.1447 356.837C81.6175 356.31 80.8267 355.519 80.2994 354.992L85.8353 349.456C86.3625 349.983 87.1534 350.774 87.6806 351.301L82.1447 356.837ZM355.248 351.828L349.712 346.293C350.239 345.765 351.03 344.975 351.557 344.447L357.356 349.983C356.566 350.774 356.038 351.301 355.248 351.828ZM72.6547 347.347C72.1274 346.556 71.3366 346.029 70.8094 345.238L76.6089 339.966C77.1361 340.493 77.6633 341.284 78.4542 341.811L72.6547 347.347ZM364.474 342.075L358.411 337.066C358.938 336.539 359.465 335.748 359.993 334.957L366.056 339.966C365.528 340.493 365.001 341.284 364.474 342.075ZM63.9555 337.066C63.4282 336.275 62.901 335.748 62.3738 334.957L68.7005 330.212C69.2277 331.003 69.7549 331.53 70.2822 332.321L63.9555 337.066ZM372.646 331.53L366.319 326.785C366.847 325.994 367.374 325.467 367.901 324.676L374.228 329.158C373.7 329.949 373.173 330.739 372.646 331.53ZM56.0471 326.258C55.5198 325.467 54.9926 324.676 54.4654 324.149L61.0557 319.668C61.5829 320.459 62.1102 320.986 62.3738 321.777L56.0471 326.258ZM380.291 320.459L373.7 316.241C374.228 315.45 374.491 314.659 375.018 314.132L381.872 318.35C381.345 318.877 380.818 319.668 380.291 320.459ZM48.9295 314.923C48.4023 314.132 48.1387 313.341 47.6115 312.55L54.4654 308.596C54.9926 309.387 55.2562 310.178 55.7834 310.705L48.9295 314.923ZM387.145 308.596L380.291 304.905C380.818 304.115 381.082 303.324 381.609 302.533L388.726 306.223C387.936 307.014 387.672 307.805 387.145 308.596ZM42.3392 303.06C41.812 302.269 41.5484 301.478 41.2847 300.688L48.4023 297.261C48.6659 298.051 49.1931 298.842 49.4567 299.633L42.3392 303.06ZM393.208 296.733L386.09 293.57C386.354 292.779 386.881 291.988 387.145 291.198L394.262 294.361C393.999 295.152 393.471 295.943 393.208 296.733ZM36.8033 290.934C36.5397 290.143 36.0125 289.352 35.7489 288.561L43.13 285.662C43.3937 286.453 43.6573 287.243 44.1845 288.034L36.8033 290.934ZM398.216 284.08L390.835 281.444C391.099 280.653 391.362 279.862 391.626 279.071L399.007 281.707C399.007 282.498 398.744 283.289 398.216 284.08ZM32.0583 278.281C31.7947 277.49 31.5311 276.699 31.2675 275.644L38.9122 273.272C39.1758 274.063 39.4395 274.854 39.7031 275.644L32.0583 278.281ZM402.698 271.427L395.053 269.054C395.317 268.263 395.58 267.472 395.844 266.682L403.489 268.79C403.225 269.581 402.961 270.636 402.698 271.427ZM28.1041 265.363C27.8405 264.573 27.5769 263.518 27.3133 262.727L34.958 260.882C35.2217 261.673 35.4853 262.464 35.4853 263.518L28.1041 265.363ZM405.861 258.51L398.216 256.928C398.48 256.137 398.48 255.346 398.744 254.292L406.388 255.873C406.388 256.664 406.125 257.455 405.861 258.51ZM25.2044 252.446C24.9408 251.656 24.9408 250.601 24.6771 249.81L32.5855 248.492C32.8491 249.283 32.8491 250.074 33.1128 251.128L25.2044 252.446ZM408.497 245.065L400.589 244.011C400.589 243.22 400.853 242.429 400.853 241.375L408.761 242.429C408.761 243.484 408.497 244.274 408.497 245.065ZM23.3591 239.002C23.3591 238.211 23.0955 237.157 23.0955 236.366L31.0038 235.575C31.0038 236.366 31.2675 237.157 31.2675 238.211L23.3591 239.002ZM409.815 231.885L401.907 231.357C401.907 230.567 401.907 229.776 402.171 228.721L410.079 229.249C410.079 230.039 410.079 230.83 409.815 231.885ZM22.041 225.558C22.041 224.767 22.041 223.713 22.041 222.922L29.9494 222.658C29.9494 223.449 29.9494 224.503 29.9494 225.294L22.041 225.558ZM410.606 218.44H402.698V215.804H410.606V218.44ZM29.9494 212.377L22.041 212.114C22.041 211.323 22.041 210.268 22.041 209.478L29.9494 209.741C29.9494 210.532 29.9494 211.586 29.9494 212.377ZM402.171 205.523C402.171 204.733 402.171 203.678 401.907 202.887L409.815 202.36C409.815 203.151 409.815 204.205 410.079 204.996L402.171 205.523ZM30.7402 199.46L22.8319 198.669C22.8319 197.879 23.0955 196.824 23.0955 196.033L31.0038 196.824C30.7402 197.879 30.7402 198.669 30.7402 199.46ZM401.116 192.606C401.116 191.816 400.853 191.025 400.853 189.97L408.761 188.916C408.761 189.707 409.025 190.761 409.025 191.552L401.116 192.606ZM32.3219 186.807L24.4135 185.489C24.6771 184.698 24.6771 183.644 24.9408 182.853L32.8491 184.171C32.5855 184.962 32.3219 185.752 32.3219 186.807ZM399.007 179.953C398.744 179.162 398.744 178.371 398.48 177.317L406.125 175.735C406.388 176.526 406.388 177.58 406.652 178.371L399.007 179.953ZM34.6944 174.153L27.0497 172.308C27.3133 171.517 27.5769 170.463 27.5769 169.672L35.2217 171.517C35.2217 172.308 34.958 173.099 34.6944 174.153ZM396.108 167.3C395.844 166.509 395.58 165.718 395.317 164.927L402.961 162.818C403.225 163.609 403.489 164.663 403.752 165.454L396.108 167.3ZM38.1214 161.5L30.4766 159.128C30.7402 158.337 31.0038 157.282 31.2675 156.491L38.9122 158.864C38.6486 159.918 38.385 160.709 38.1214 161.5ZM392.153 154.91C391.89 154.119 391.626 153.328 391.363 152.537L398.744 149.901C399.007 150.692 399.271 151.483 399.534 152.537L392.153 154.91ZM42.3392 149.374L34.958 146.474C35.2217 145.683 35.4853 144.892 36.0125 143.838L43.3937 146.738C42.8664 147.792 42.6028 148.583 42.3392 149.374ZM387.408 143.047C387.145 142.256 386.617 141.465 386.354 140.675L393.471 137.511C393.735 138.302 394.262 139.093 394.526 139.884L387.408 143.047ZM47.3478 137.511L40.2303 134.084C40.4939 133.293 41.0211 132.503 41.2847 131.712L48.4023 135.139C48.1387 135.93 47.8751 136.72 47.3478 137.511ZM382.136 131.448C381.872 130.657 381.345 129.867 380.818 129.076L387.672 125.385C388.199 126.176 388.463 126.967 388.99 127.758L382.136 131.448ZM53.4109 125.912L46.557 121.958C47.0842 121.167 47.3478 120.376 47.8751 119.586L54.729 123.54C54.2018 124.594 53.6746 125.121 53.4109 125.912ZM375.809 120.113C375.282 119.322 375.018 118.531 374.491 118.004L381.082 113.786C381.609 114.577 382.136 115.368 382.4 116.159L375.809 120.113ZM60.0013 114.841L53.4109 110.623C53.9382 109.832 54.4654 109.041 54.9926 108.25L61.5829 112.732C61.0557 113.523 60.5285 114.313 60.0013 114.841ZM368.692 109.305C368.165 108.514 367.637 107.987 367.11 107.196L373.437 102.451C373.964 103.242 374.491 104.032 375.018 104.56L368.692 109.305ZM67.3824 104.296L61.0557 99.551C61.5829 98.7602 62.1102 98.233 62.6374 97.4421L68.9641 102.187C68.4369 102.978 67.9096 103.769 67.3824 104.296ZM360.783 99.0238C360.256 98.233 359.729 97.7058 359.202 96.9149L365.265 91.9063C365.792 92.6971 366.319 93.2243 366.847 94.0152L360.783 99.0238ZM75.5544 94.2788L69.4913 89.0065C70.0185 88.2157 70.5458 87.6885 71.3366 86.8976L77.1361 92.1699C76.6089 92.9607 76.0816 93.7516 75.5544 94.2788ZM352.348 89.2701C351.821 88.7429 351.293 87.9521 350.503 87.4249L356.302 81.889C356.829 82.4162 357.62 83.2071 358.147 83.7343L352.348 89.2701ZM84.2536 84.7887L78.7178 79.2529C79.245 78.7256 80.0358 77.9348 80.5631 77.4076L86.0989 82.9434C85.5717 83.7343 85.0445 84.2615 84.2536 84.7887ZM343.385 80.3073C342.858 79.7801 342.067 79.2529 341.54 78.462L346.812 72.6625C347.603 73.1898 348.13 73.9806 348.657 74.5078L343.385 80.3073ZM93.7437 76.0895L88.4714 70.0264C89.2623 69.4992 89.7895 68.972 90.5803 68.1811L95.589 74.2442C95.0618 75.035 94.2709 75.5623 93.7437 76.0895ZM333.631 71.6081C332.84 71.0809 332.313 70.5536 331.522 70.0264L336.531 63.6997C337.322 64.2269 337.849 64.7542 338.64 65.2814L333.631 71.6081ZM103.761 67.9175L99.0159 61.5908C99.8068 61.0636 100.334 60.5364 101.125 60.0091L105.87 66.3358C105.079 66.8631 104.552 67.3903 103.761 67.9175ZM323.35 63.9633C322.56 63.4361 322.032 62.9089 321.242 62.3816L325.723 55.7913C326.514 56.3185 327.305 56.8458 327.832 57.373L323.35 63.9633ZM114.305 60.5364L110.088 53.946C110.879 53.4188 111.669 52.8916 112.46 52.3644L116.678 58.9547C115.624 59.4819 115.096 60.0091 114.305 60.5364ZM312.542 56.8458C311.751 56.3186 310.961 56.0549 310.433 55.5277L314.388 48.6738C315.178 49.201 315.969 49.4646 316.76 49.9918L312.542 56.8458ZM125.377 53.6824L121.423 46.8285C122.214 46.3013 123.005 46.0377 123.796 45.5104L127.486 52.3644C126.695 52.8916 125.904 53.4188 125.377 53.6824ZM301.207 50.5191C300.416 50.2555 299.625 49.7282 298.834 49.4646L302.261 42.3471C303.052 42.8743 303.843 43.1379 304.634 43.6651L301.207 50.5191ZM136.713 47.8829L133.286 40.7654C134.076 40.5018 134.867 39.9746 135.658 39.7109L138.821 46.8285C138.294 47.0921 137.503 47.6193 136.713 47.8829ZM289.344 44.9832C288.554 44.7196 287.763 44.1924 286.972 43.9287L289.872 36.5476C290.662 36.8112 291.453 37.3384 292.244 37.602L289.344 44.9832ZM148.575 42.8743L145.675 35.4931C146.466 35.2295 147.257 34.9659 148.312 34.4387L151.211 41.8198C150.157 42.0835 149.366 42.3471 148.575 42.8743ZM277.482 40.2382C276.691 39.9746 275.9 39.7109 275.109 39.4473L277.482 32.0662C278.273 32.3298 279.063 32.5934 280.118 32.857L277.482 40.2382ZM160.701 38.3929L158.329 30.7481C159.12 30.4845 160.174 30.2209 160.965 29.9573L163.337 37.602C162.283 37.8657 161.492 38.1293 160.701 38.3929ZM265.092 36.5476C264.301 36.284 263.51 36.0204 262.719 36.0204L264.565 28.3756C265.356 28.6392 266.41 28.9028 267.201 29.1664L265.092 36.5476ZM173.091 34.9659L171.246 27.3211C172.037 27.0575 173.091 26.7939 173.882 26.7939L175.727 34.4387C174.936 34.7023 173.882 34.9659 173.091 34.9659ZM252.439 33.6479C251.648 33.3842 250.857 33.3842 249.802 33.1206L251.121 25.2122C251.911 25.4759 252.966 25.4759 253.757 25.7395L252.439 33.6479ZM185.745 32.5934L184.426 24.685C185.217 24.4214 186.272 24.4214 187.063 24.1578L188.117 32.0662C187.59 32.3298 186.535 32.3298 185.745 32.5934ZM239.785 31.5389C238.994 31.5389 238.203 31.2753 237.149 31.2753L237.94 23.367C238.731 23.367 239.785 23.6306 240.576 23.6306L239.785 31.5389ZM198.662 31.0117L197.871 23.1033C198.662 23.1033 199.716 22.8397 200.507 22.8397L201.034 30.7481C200.243 30.7481 199.452 30.7481 198.662 31.0117ZM226.868 30.4845C226.077 30.4845 225.023 30.4845 224.232 30.4845L224.496 22.5761C225.286 22.5761 226.341 22.5761 227.132 22.8397L226.868 30.4845ZM211.579 30.2209L211.315 22.3125C212.106 22.3125 213.16 22.3125 213.951 22.3125V30.2209C213.16 29.9573 212.369 30.2209 211.579 30.2209Z" fill="#83C4FD"/>
</svg>
