<svg width="227" height="231" viewBox="0 0 227 231" fill="none" xmlns="http://www.w3.org/2000/svg">
<path d="M1.56395 230.797L0.759766 212.707C1.56396 212.707 2.36816 212.707 3.44042 212.707L4.51268 230.797C3.44042 230.797 2.63621 230.797 1.56395 230.797ZM15.5034 230.022L13.6269 211.932L16.3075 211.673L18.4521 229.763C17.3798 229.763 16.3076 229.763 15.5034 230.022ZM29.4427 228.213L26.494 210.381C27.2982 210.381 28.1024 210.123 28.9066 209.864L32.1234 227.696C31.0511 227.954 30.2469 228.213 29.4427 228.213ZM43.1141 225.887L39.0931 208.314L41.5057 207.797L45.7947 225.37L43.1141 225.887ZM56.5173 222.527L51.4241 205.213L53.8367 204.437L59.198 221.752C58.3938 222.01 57.5896 222.269 56.5173 222.527ZM69.9206 218.392L63.7551 201.336C64.5593 201.078 65.3635 200.819 66.1677 200.561L72.6012 217.617C71.529 217.876 70.7248 218.134 69.9206 218.392ZM82.7877 213.741L75.55 196.943C76.3542 196.685 77.1584 196.426 77.9626 195.909L85.4684 212.449C84.6642 212.965 83.86 213.482 82.7877 213.741ZM95.6549 208.314L87.6129 192.033C88.4171 191.774 89.2213 191.258 90.0255 190.999L98.3355 207.28C97.2633 207.538 96.4591 207.797 95.6549 208.314ZM107.986 202.111L98.8717 186.347L101.016 185.055L110.398 200.819C109.594 201.078 108.79 201.595 107.986 202.111ZM120.049 195.134L109.862 179.887C110.667 179.37 111.203 179.111 112.007 178.595L122.193 193.842C121.389 194.359 120.585 194.617 120.049 195.134ZM131.576 187.64L120.585 172.909C121.389 172.392 121.925 171.876 122.729 171.359L133.988 185.831C132.916 186.606 132.112 187.123 131.576 187.64ZM142.566 179.37L130.771 165.415C131.308 164.898 132.112 164.381 132.648 163.864L144.711 177.819C143.907 178.336 143.102 178.853 142.566 179.37ZM153.021 170.583L140.422 157.145L142.298 155.336L155.165 168.516C154.361 169.55 153.825 170.067 153.021 170.583ZM162.939 161.28L149.536 148.617C150.072 148.1 150.608 147.325 151.412 146.808L165.084 159.213C164.28 159.988 163.743 160.763 162.939 161.28ZM172.59 151.46L158.382 139.572C158.918 139.055 159.454 138.28 159.991 137.763L174.198 149.392C173.662 150.168 173.126 150.685 172.59 151.46ZM181.436 141.123L166.692 130.01C167.228 129.235 167.764 128.718 168.301 127.943L183.312 138.797C182.508 139.572 181.972 140.347 181.436 141.123ZM189.478 130.269L173.93 120.19C174.466 119.415 175.002 118.898 175.27 118.123L190.818 128.201C190.55 128.718 190.014 129.494 189.478 130.269ZM196.984 118.898L180.9 109.595C181.436 108.819 181.704 108.303 182.24 107.527L198.324 116.572C198.056 117.347 197.52 118.123 196.984 118.898ZM203.953 107.01L187.333 98.7407L188.405 96.4149L205.026 104.685C204.757 105.46 204.221 106.235 203.953 107.01ZM209.851 94.8643L192.695 87.3699C192.963 86.5946 193.499 85.8193 193.767 85.0441L210.923 92.28C210.655 93.3137 210.387 94.089 209.851 94.8643ZM215.212 82.4598L197.788 75.9991C198.056 75.2238 198.324 74.4486 198.592 73.6733L216.284 79.8755C216.016 80.9092 215.748 81.6845 215.212 82.4598ZM220.037 69.7969L202.077 64.3699C202.345 63.5946 202.613 62.8193 202.881 62.0441L220.841 67.2126C220.573 67.9879 220.305 69.0216 220.037 69.7969ZM223.79 56.8755L205.562 52.4823C205.83 51.707 206.098 50.9317 206.098 50.1564L224.326 54.2913C224.058 55.0665 224.058 55.8418 223.79 56.8755ZM226.739 43.6957L208.242 40.3362C208.51 39.5609 208.51 38.7856 208.778 38.0104L227.275 41.1115C227.007 41.8868 226.739 42.9205 226.739 43.6957ZM228.883 30.516L210.387 28.1901C210.387 27.4148 210.655 26.6396 210.655 25.8643L229.419 27.9317C229.151 28.707 228.883 29.4823 228.883 30.516ZM230.224 17.0778L211.459 15.7856C211.459 15.0104 211.459 14.2351 211.727 13.2014L230.492 14.2351C230.492 15.2688 230.224 16.0441 230.224 17.0778ZM230.76 3.63957L211.995 3.38114C211.995 2.60586 211.995 1.83058 211.995 0.796875H230.76C230.76 1.83058 230.76 2.60586 230.76 3.63957Z" fill="#4DACFF"/>
</svg>
